<svg viewBox="0 0 90 90" fill="none" xmlns="http://www.w3.org/2000/svg">
<path d="M42.2425 23.7053H34.3429L23.1424 35.705V23.7053H17.1428V52.9051H23.1424V43.1054L26.0428 40.1052L35.0424 52.9051H42.8424L30.3424 35.7052L42.2425 23.7053Z" fill="black"/>
<path d="M64.5569 46.7052L59.2569 23.7053H50.3569V52.9051H56.0573L56.0566 33.1052V30.7051V28.3049L61.5567 52.8048H67.4565L72.9567 28.4049V30.8051V33.2052V52.9051H78.657L78.6563 23.7053H69.8562L64.5569 46.7052Z" fill="black"/>
<path d="M79 0H11.0003C4.90034 0 0 4.60034 0 10.3V61.9997C0 67.7001 4.90016 72.2997 11.0003 72.2997H18.2003V87.5996C18.2003 88.4995 18.8002 89.3993 19.7 89.7996C20.0997 89.9998 20.4003 89.9998 20.8 89.9998C21.3999 89.9998 21.9998 89.7996 22.4999 89.4997L45.1998 72.2997H78.9997C85.0997 72.2997 90 67.6994 90 61.9998V10.3C90 4.60039 85.0998 5.34737e-05 78.9997 5.34737e-05L79 0ZM84.9005 61.8997C84.9005 64.8999 82.3007 67.2994 79.1006 67.2994H44.2007C43.6008 67.2994 43.0009 67.4996 42.5008 67.7995L23.4009 82.2993V69.6995C23.4009 68.3993 22.2011 67.2993 20.8011 67.2993H11.0013C7.80095 67.2993 5.20132 64.8992 5.20132 61.8997V10.4999C5.20132 7.49975 7.80113 5.1003 11.0013 5.1003H79.201C82.4014 5.1003 85.001 7.50047 85.001 10.4999L85.0003 61.8997L84.9005 61.8997Z" fill="black"/>
</svg>
