<svg viewBox="0 0 91 87" fill="none" xmlns="http://www.w3.org/2000/svg">
<path fill-rule="evenodd" clip-rule="evenodd" d="M26.9579 40.971C28.1699 42.0351 29.1657 43.3292 29.874 44.781L23.7132 46.4301L26.9579 40.971ZM32.7029 31.2909L39.7223 42.1435L35.5434 43.261C34.3446 40.3761 32.4154 37.857 29.943 35.9458L32.7029 31.2909ZM52.3719 20.3258L42.9459 39.0901L35.8089 28.0684L52.3719 20.3258ZM54.6348 0.101539C53.238 0.553445 52.6718 2.2296 53.5173 3.43657L55.0785 5.73964L51.3293 7.498C50.0557 8.09618 49.6736 9.71904 50.5388 10.824L53.7285 14.8731L33.4186 24.3749L32.0013 22.1719C31.4754 21.347 30.4672 20.9641 29.5263 21.2451C28.1229 21.6682 27.5223 23.3313 28.3415 24.5498L30.0505 27.2012L17.2178 48.8121C16.2219 50.4982 17.7691 52.5359 19.6574 52.0306L31.0596 48.9772C31.6175 54.9006 27.823 60.3597 22.0772 61.9086C15.5607 63.653 8.87381 59.8027 7.12962 53.2992C5.39181 46.7974 9.256 40.1116 15.7662 38.3655C17.4071 37.93 19.1244 37.8421 20.8021 38.1075L23.9301 32.8718C20.7823 31.9598 17.4357 31.9178 14.2658 32.7633C9.65209 34.004 5.71147 37.0172 3.32048 41.1542C0.934317 45.2839 0.281194 50.1892 1.51939 54.7996C4.0896 64.3957 13.9651 70.0883 23.5762 67.5107C32.4223 65.1328 38.0753 56.5038 36.7171 47.4663L43.3973 45.6734C44.2765 45.5978 45.0201 44.998 45.2846 44.1591L57.5545 19.7317L71.0494 36.902C72.8489 39.1846 76.2852 36.487 74.4783 34.1963L67.1852 24.9196C67.9756 24.4981 68.8211 24.1563 69.7201 23.9106C76.2366 22.1662 82.9317 26.0231 84.6676 32.5241C86.412 39.021 82.5412 45.7077 76.0319 47.4521C69.5154 49.1965 62.8285 45.3396 61.0908 38.8443C60.3538 36.0974 60.6274 33.3228 61.6644 30.9038L57.7524 25.968C55.101 30.0853 54.1058 35.2447 55.4748 40.343C58.045 49.9392 67.9213 55.6318 77.5316 53.0542C87.1425 50.4783 92.854 40.615 90.2846 31.0184C87.7144 21.4223 77.8315 15.7274 68.2215 18.3056C66.5387 18.7558 64.9849 19.4427 63.5594 20.308L55.6805 10.282L59.2391 8.61325C60.4576 8.04794 60.88 6.52868 60.1306 5.40969L57.1267 0.987594C56.5852 0.170865 55.5696 -0.193138 54.6345 0.10103L54.6348 0.101539Z" fill="black"/>
<path d="M22.2125 15.0838L28.8786 13.3066C32.4898 12.3329 33.7592 16.4765 30.8695 18.0435L26.0101 20.6884C23.6042 21.9957 20.8623 21.1847 20.1402 18.677C19.6907 17.115 20.644 15.5079 22.2125 15.0838Z" fill="black"/>
<path d="M85.3078 57.1445L65.4663 70.1209C62.8025 71.627 61.8133 70.1546 62.9102 68.8465L64.8181 66.5638C66.27 64.826 65.8822 64.3346 63.8042 63.8294L51.365 60.8311C48.3379 60.0941 46.8459 60.3874 44.0176 62.6585L34.4675 70.3056C31.2309 73.3852 28.3132 73.7203 24.1227 73.7203H10.9391C7.98124 73.7203 7.73555 73.9241 5.79386 76.1509L1.81791 80.6922C-0.131069 82.9215 1.1992 86.0346 4.15632 86.0346H84.2979C88.7899 86.0346 90.8958 83.7668 90.8958 80.0242V59.775C90.8975 55.8664 87.8845 55.4604 85.3078 57.144V57.1445Z" fill="black"/>
</svg>
