<svg  viewBox="0 0 90 90" fill="none" xmlns="http://www.w3.org/2000/svg">
<path d="M45 0C33.0656 0 21.6201 4.74106 13.18 13.18C4.74106 21.6189 0 33.0648 0 45C0 56.9352 4.74106 68.3799 13.18 76.82C21.6189 85.2589 33.0648 90 45 90C56.9352 90 68.3799 85.2589 76.82 76.82C85.2589 68.3811 90 56.9352 90 45C90 33.0648 85.2589 21.6201 76.82 13.18C68.3811 4.74106 56.9352 0 45 0ZM48.4615 83.0758V79.6143C48.4615 78.3773 47.8017 77.2346 46.7307 76.6165C45.6598 75.9984 44.3401 75.9984 43.2693 76.6165C42.1984 77.2346 41.5385 78.3774 41.5385 79.6143V83.0758C32.6506 82.2576 24.3331 78.3433 18.0379 72.0161C11.7432 65.6896 7.86985 57.3526 7.09645 48.4601H10.3849C11.6219 48.4601 12.7646 47.8003 13.3827 46.7294C14.0008 45.6585 14.0008 44.3388 13.3827 43.2679C12.7646 42.197 11.6219 41.5371 10.3849 41.5371H6.92338C7.74162 32.6492 11.6559 24.3317 17.9831 18.0366C24.3096 11.7418 32.6466 7.86847 41.5391 7.09507V10.3835C41.5391 11.6205 42.1989 12.7632 43.2698 13.3813C44.3408 13.9995 45.6605 13.9995 46.7313 13.3813C47.8022 12.7632 48.4621 11.6205 48.4621 10.3835V6.922C57.3809 7.7016 65.7395 11.599 72.0695 17.9291C78.3998 24.2595 82.2971 32.6181 83.0766 41.5365H79.6151C78.3781 41.5365 77.2354 42.1964 76.6173 43.2673C75.9992 44.3382 75.9992 45.6579 76.6173 46.7288C77.2354 47.7997 78.3781 48.4595 79.6151 48.4595H83.0766C82.297 57.3783 78.3996 65.7369 72.0695 72.0669C65.7391 78.3973 57.3805 82.2945 48.4621 83.074L48.4615 83.0758ZM54.6226 49.0147C55.1464 47.7414 55.406 46.3753 55.3844 44.9992C55.3782 42.8566 54.7099 40.7689 53.4705 39.0211C52.2312 37.2734 50.4812 35.9521 48.4614 35.2374V20.7688C48.4614 19.5317 47.8016 18.389 46.7307 17.7709C45.6598 17.1528 44.3401 17.1528 43.2692 17.7709C42.1983 18.389 41.5385 19.5318 41.5385 20.7688V35.2374C38.4617 36.3539 36.0913 38.8565 35.1416 41.9889C34.1928 45.122 34.7769 48.5187 36.7171 51.1549C38.6572 53.7912 41.7269 55.3582 44.9999 55.3837C46.7484 55.3605 48.463 54.8961 49.9843 54.0339L56.2498 61.1299C56.8563 61.8176 57.7109 62.2364 58.6257 62.2951C59.5406 62.353 60.4415 62.0463 61.1307 61.4413C61.8183 60.8348 62.2371 59.9802 62.2958 59.0653C62.3538 58.1505 62.047 57.2496 61.442 56.5604L54.6226 49.0147ZM41.5385 44.9992C41.5385 44.0813 41.9032 43.2005 42.5522 42.5514C43.2012 41.9024 44.0821 41.5377 45 41.5377C45.9179 41.5377 46.7987 41.9024 47.4478 42.5514C48.0968 43.2005 48.4615 44.0813 48.4615 44.9992C48.4615 45.9171 48.0968 46.798 47.4478 47.447C46.7987 48.096 45.9179 48.4607 45 48.4607C44.0821 48.4607 43.2012 48.096 42.5522 47.447C41.9032 46.798 41.5385 45.9171 41.5385 44.9992Z" fill="black"/>
</svg>
