<svg viewBox="0 0 90 112" fill="none" xmlns="http://www.w3.org/2000/svg">
<path d="M44.9334 55.9184C54.0234 55.9184 61.5764 48.4931 61.5764 39.2754C61.5764 30.0576 54.1512 22.6324 44.9334 22.6324C35.8434 22.6324 28.2904 30.0576 28.2904 39.2754C28.2904 48.4931 35.8434 55.9184 44.9334 55.9184ZM44.9334 33.0025C48.3902 33.0025 51.3345 35.819 51.3345 39.4036C51.3345 42.9882 48.518 45.8047 44.9334 45.8047C41.3488 45.8047 38.5323 42.9882 38.5323 39.4036C38.5323 35.819 41.4766 33.0025 44.9334 33.0025Z" fill="black"/>
<path d="M44.9365 111.635C70.5407 111.635 90 101.265 90 87.4389C90 79.2456 83.0873 72.0766 71.4371 67.7241L71.9488 67.2124C86.6708 51.85 86.6708 27.0137 71.9488 11.6511C64.6511 4.09714 55.1782 0 44.9363 0C34.6944 0 25.2215 4.09714 18.0518 11.6502C3.3298 27.0125 3.3298 51.8489 18.0518 67.2115L18.5635 67.7232C6.91333 72.0757 0.000624872 79.2446 0.000624872 87.438C-0.127074 101.265 19.3323 111.634 44.9361 111.634L44.9365 111.635ZM25.3492 18.6914C30.5983 13.187 37.511 10.2418 44.9365 10.2418C52.3619 10.2418 59.2746 13.186 64.5237 18.6914C75.406 30.0853 75.406 48.6484 64.5237 60.0423L44.9365 80.3975L25.3492 60.0423C14.4669 48.6484 14.4669 30.0853 25.3492 18.6914ZM26.3735 75.917L41.2242 91.408C42.2485 92.4323 43.5281 92.944 44.9363 92.944C46.3446 92.944 47.6253 92.4323 48.6485 91.408L63.4992 75.917C74.125 78.8613 79.7582 83.8541 79.7582 87.4385C79.7582 93.1992 66.572 101.393 44.9363 101.393C23.4292 101.393 10.1145 93.327 10.1145 87.4385C10.1145 83.7254 15.7477 78.861 26.3735 75.917Z" fill="black"/>
</svg>
